<svg width="32" height="22" viewBox="0 0 32 22" fill="none" xmlns="http://www.w3.org/2000/svg">
<path d="M19.5158 4.72321H12.4843V17.392H19.5158V4.72321Z" fill="#FF5F00"/>
<path d="M12.9319 11.0569C12.9308 9.83795 13.2064 8.63462 13.7379 7.53759C14.2693 6.44055 15.0428 5.47842 16 4.72367C14.9899 3.92949 13.8046 3.38842 12.5428 3.14563C11.2811 2.90283 9.97953 2.96535 8.74685 3.32796C7.51418 3.69057 6.38611 4.34275 5.4568 5.23008C4.52749 6.11741 3.8239 7.21415 3.40473 8.42876C2.98557 9.64337 2.863 10.9406 3.04725 12.2122C3.23151 13.4839 3.71724 14.693 4.46391 15.7387C5.21058 16.7843 6.19653 17.6363 7.33948 18.2233C8.48242 18.8104 9.74921 19.1156 11.0341 19.1134C12.8364 19.1157 14.5865 18.5085 16 17.3902C15.0428 16.6355 14.2693 15.6733 13.7379 14.5763C13.2064 13.4793 12.9308 12.2759 12.9319 11.0569Z" fill="#EB001B"/>
<path d="M28.2324 16.0493V15.7897H28.3376V15.736H28.0646V15.7897H28.1698V16.0493H28.2324ZM28.7494 16.0493V15.736H28.6688L28.5748 15.9598L28.4808 15.736H28.398V16.0493H28.4562V15.8121L28.5435 16.0157H28.6039L28.6912 15.8121V16.0493H28.7494Z" fill="#F79E1B"/>
<path d="M29 11.0565C29.0051 12.5663 28.5844 14.047 27.7861 15.3286C26.9879 16.6102 25.8445 17.6407 24.4871 18.302C23.1298 18.9633 21.6135 19.2284 20.1123 19.0671C18.6111 18.9057 17.1858 18.3244 16 17.3897C16.9566 16.6344 17.7296 15.6721 18.2611 14.5752C18.7925 13.4783 19.0686 12.2753 19.0686 11.0565C19.0686 9.83761 18.7925 8.63459 18.2611 7.53771C17.7296 6.44082 16.9566 5.47857 16 4.72319C17.1858 3.78858 18.6111 3.20723 20.1123 3.04587C21.6135 2.88451 23.1298 3.14968 24.4871 3.81094C25.8445 4.47221 26.9879 5.50277 27.7861 6.78436C28.5844 8.06595 29.0051 9.54663 29 11.0565Z" fill="#F79E1B"/>
</svg>
