<svg width="32" height="22" viewBox="0 0 32 22" fill="none" xmlns="http://www.w3.org/2000/svg">
<path d="M8.12443 8.029L7.08477 11.6305H6.9069L5.86725 8.029C5.68938 7.41956 5.13121 7 4.49332 7H2V14.84H4.49638V10.2064H4.67427L6.1034 14.84H7.88829L9.31436 10.2064H9.49223V14.84H11.9886V7H9.49529C8.86046 7 8.30231 7.41956 8.12443 8.029ZM21.9465 14.84H24.4582V12.5217H26.9854C28.3071 12.5217 29.4327 11.7744 29.8681 10.724H21.9465V14.84ZM17.4966 7.82688L15.7393 11.6336H15.5615V7H13.0651V14.84H15.1842C15.7424 14.84 16.2484 14.5154 16.4815 14.0131L18.2387 10.2095H18.4167V14.84H20.913V7H18.7938C18.2357 7 17.7297 7.32463 17.4966 7.82688Z" fill="#006848"/>
<path d="M27.2338 7C27.9544 7 28.6077 7.27563 29.1014 7.72888C29.6535 8.23112 30 8.95388 30 9.75932C30 9.92468 29.9816 10.087 29.954 10.2462H25.317C23.7468 10.2462 22.4158 9.21725 21.968 7.79625C21.9619 7.78094 21.9588 7.76256 21.9527 7.74419C21.9404 7.70131 21.9312 7.65538 21.919 7.6125C21.873 7.41344 21.8423 7.21131 21.83 7H27.2338Z" fill="url(#a)"/>
<defs>
<linearGradient id="a" x1="30" y1="17.1527" x2="21.88" y2="17.1527" gradientUnits="userSpaceOnUse">
<stop stop-color="#1E5CD8"/>
<stop offset="1" stop-color="#02AFFF"/>
</linearGradient>
</defs>
</svg>
