<svg width="32" height="22" viewBox="0 0 32 22" fill="none" xmlns="http://www.w3.org/2000/svg">
<path d="M9.00029 15.1273H6.57707L4.75995 7.991C4.6737 7.66272 4.49057 7.37251 4.22119 7.23573C3.54893 6.892 2.80814 6.61844 2 6.48047V6.20573H5.90362C6.44238 6.20573 6.84645 6.61844 6.91379 7.09777L7.85662 12.2454L10.2787 6.20573H12.6345L9.00029 15.1273ZM13.9814 15.1273H11.6929L13.5774 6.20573H15.8659L13.9814 15.1273ZM18.8267 8.67731C18.8941 8.1968 19.2981 7.92205 19.7695 7.92205C20.5103 7.85306 21.3173 7.99103 21.9907 8.33358L22.3948 6.41272C21.7213 6.13797 20.9806 6 20.3083 6C18.0871 6 16.4708 7.23577 16.4708 8.95087C16.4708 10.2556 17.6157 10.9407 18.4238 11.3534C19.2981 11.765 19.6348 12.0397 19.5675 12.4512C19.5675 13.0685 18.8941 13.3433 18.2218 13.3433C17.4137 13.3433 16.6055 13.1375 15.8659 12.7938L15.4618 14.7158C16.27 15.0584 17.1443 15.1963 17.9524 15.1963C20.443 15.2641 21.9907 14.0296 21.9907 12.1765C21.9907 9.84291 18.8267 9.70613 18.8267 8.67731ZM30 15.1273L28.1829 6.20573H26.2311C25.827 6.20573 25.4229 6.48047 25.2882 6.892L21.9234 15.1273H24.2792L24.7495 13.8237H27.6441L27.9135 15.1273H30ZM26.5678 8.60836L27.2401 11.9708H25.3556L26.5678 8.60836Z" fill="#15195A"/>
</svg>
